<svg xmlns="http://www.w3.org/2000/svg" xmlns:xlink="http://www.w3.org/1999/xlink" version="1.1" width="256" height="256" viewBox="0 0 256 256" xml:space="preserve">

<defs>
</defs>
<g style="stroke: none; stroke-width: 0; stroke-dasharray: none; stroke-linecap: butt; stroke-linejoin: miter; stroke-miterlimit: 10; fill: none; fill-rule: nonzero; opacity: 1;" transform="translate(1.4065934065934016 1.4065934065934016) scale(2.81 2.81)" >
	<path d="M 7.39 32.042 c -0.023 -0.346 -0.039 -0.694 -0.039 -1.045 c 0 -8.573 6.95 -15.524 15.524 -15.524 c 6.202 0 11.553 3.639 14.039 8.897 c 1.873 -1.33 4.155 -2.119 6.627 -2.119 c 5.718 0 10.445 4.189 11.314 9.662 c 3.937 1.077 6.835 4.671 6.835 8.95 c 0 5.13 -4.158 9.288 -9.288 9.288 H 10.288 C 5.158 50.151 1 45.992 1 40.863 C 1 36.746 3.681 33.26 7.39 32.042 z" style="stroke: none; stroke-width: 1; stroke-dasharray: none; stroke-linecap: butt; stroke-linejoin: miter; stroke-miterlimit: 10; fill: rgb(88,155,211); fill-rule: nonzero; opacity: 1;" transform=" matrix(1 0 0 1 0 0) " stroke-linecap="round" />
	<path d="M 52.401 51.15 H 10.288 C 4.615 51.15 0 46.535 0 40.863 c 0 -4.196 2.524 -7.924 6.356 -9.504 c -0.003 -0.121 -0.005 -0.241 -0.005 -0.362 c 0 -9.111 7.413 -16.523 16.523 -16.523 c 5.979 0 11.521 3.286 14.423 8.461 c 1.897 -1.104 4.034 -1.684 6.243 -1.684 c 5.951 0 10.979 4.12 12.187 9.885 c 4.13 1.411 6.962 5.323 6.962 9.727 C 62.689 46.535 58.074 51.15 52.401 51.15 z M 22.875 16.473 c -8.008 0 -14.523 6.515 -14.523 14.523 c 0 0.329 0.015 0.655 0.037 0.979 c 0.03 0.456 -0.252 0.874 -0.686 1.017 C 4.292 34.112 2 37.275 2 40.863 c 0 4.57 3.718 8.288 8.288 8.288 h 42.113 c 4.57 0 8.288 -3.718 8.288 -8.288 c 0 -3.719 -2.508 -7.003 -6.099 -7.985 c -0.379 -0.104 -0.662 -0.419 -0.724 -0.808 c -0.811 -5.11 -5.153 -8.819 -10.326 -8.819 c -2.174 0 -4.266 0.669 -6.048 1.935 c -0.241 0.17 -0.545 0.227 -0.832 0.152 c -0.286 -0.075 -0.524 -0.272 -0.651 -0.54 C 33.619 19.741 28.463 16.473 22.875 16.473 z" style="stroke: none; stroke-width: 1; stroke-dasharray: none; stroke-linecap: butt; stroke-linejoin: miter; stroke-miterlimit: 10; fill: rgb(0,0,0); fill-rule: nonzero; opacity: 1;" transform=" matrix(1 0 0 1 0 0) " stroke-linecap="round" />
	<circle cx="59.367" cy="41.887" r="17.967" style="stroke: none; stroke-width: 1; stroke-dasharray: none; stroke-linecap: butt; stroke-linejoin: miter; stroke-miterlimit: 10; fill: rgb(249,193,0); fill-rule: nonzero; opacity: 1;" transform="  matrix(1 0 0 1 0 0) "/>
	<path d="M 59.364 60.852 c -10.459 0 -18.967 -8.509 -18.967 -18.967 c 0 -10.458 8.508 -18.967 18.967 -18.967 s 18.968 8.509 18.968 18.967 C 78.332 52.343 69.823 60.852 59.364 60.852 z M 59.364 24.917 c -9.355 0 -16.967 7.611 -16.967 16.967 c 0 9.355 7.612 16.967 16.967 16.967 c 9.356 0 16.968 -7.611 16.968 -16.967 C 76.332 32.529 68.721 24.917 59.364 24.917 z" style="stroke: none; stroke-width: 1; stroke-dasharray: none; stroke-linecap: butt; stroke-linejoin: miter; stroke-miterlimit: 10; fill: rgb(0,0,0); fill-rule: nonzero; opacity: 1;" transform=" matrix(1 0 0 1 0 0) " stroke-linecap="round" />
	<path d="M 59.364 19.347 c -0.553 0 -1 -0.448 -1 -1 v -6.098 c 0 -0.552 0.447 -1 1 -1 s 1 0.448 1 1 v 6.098 C 60.364 18.899 59.917 19.347 59.364 19.347 z" style="stroke: none; stroke-width: 1; stroke-dasharray: none; stroke-linecap: butt; stroke-linejoin: miter; stroke-miterlimit: 10; fill: rgb(0,0,0); fill-rule: nonzero; opacity: 1;" transform=" matrix(1 0 0 1 0 0) " stroke-linecap="round" />
	<path d="M 89 42.885 h -6.098 c -0.553 0 -1 -0.448 -1 -1 s 0.447 -1 1 -1 H 89 c 0.553 0 1 0.448 1 1 S 89.553 42.885 89 42.885 z" style="stroke: none; stroke-width: 1; stroke-dasharray: none; stroke-linecap: butt; stroke-linejoin: miter; stroke-miterlimit: 10; fill: rgb(0,0,0); fill-rule: nonzero; opacity: 1;" transform=" matrix(1 0 0 1 0 0) " stroke-linecap="round" />
	<path d="M 76.009 26.241 c -0.256 0 -0.512 -0.098 -0.707 -0.293 c -0.391 -0.391 -0.391 -1.023 0 -1.414 l 4.312 -4.312 c 0.391 -0.391 1.023 -0.391 1.414 0 s 0.391 1.023 0 1.414 l -4.312 4.312 C 76.521 26.143 76.265 26.241 76.009 26.241 z" style="stroke: none; stroke-width: 1; stroke-dasharray: none; stroke-linecap: butt; stroke-linejoin: miter; stroke-miterlimit: 10; fill: rgb(0,0,0); fill-rule: nonzero; opacity: 1;" transform=" matrix(1 0 0 1 0 0) " stroke-linecap="round" />
	<path d="M 14.815 54.518 c -0.03 -0.444 -0.05 -0.89 -0.05 -1.341 c 0 -10.999 8.917 -19.916 19.916 -19.916 c 7.957 0 14.822 4.668 18.012 11.414 c 2.402 -1.706 5.331 -2.718 8.502 -2.718 c 7.336 0 13.401 5.374 14.516 12.396 c 5.051 1.382 8.769 5.993 8.769 11.482 c 0 6.581 -5.335 11.916 -11.916 11.916 h -54.03 c -6.581 0 -11.916 -5.335 -11.916 -11.916 C 6.617 60.553 10.056 56.081 14.815 54.518 z" style="stroke: none; stroke-width: 1; stroke-dasharray: none; stroke-linecap: butt; stroke-linejoin: miter; stroke-miterlimit: 10; fill: rgb(98,195,247); fill-rule: nonzero; opacity: 1;" transform=" matrix(1 0 0 1 0 0) " stroke-linecap="round" />
	<path d="M 72.563 78.751 h -54.03 c -7.122 0 -12.916 -5.794 -12.916 -12.916 c 0 -5.333 3.249 -10.064 8.16 -12.005 c -0.008 -0.217 -0.012 -0.435 -0.012 -0.653 c 0 -11.533 9.383 -20.917 20.917 -20.917 c 7.665 0 14.765 4.268 18.397 10.964 c 2.451 -1.487 5.234 -2.269 8.116 -2.269 c 7.554 0 13.929 5.269 15.392 12.616 c 5.268 1.725 8.893 6.679 8.893 12.263 C 85.479 72.957 79.686 78.751 72.563 78.751 z M 34.682 34.26 c -10.431 0 -18.917 8.486 -18.917 18.917 c 0 0.429 0.02 0.854 0.048 1.274 c 0.03 0.456 -0.252 0.874 -0.686 1.017 c -4.492 1.476 -7.51 5.643 -7.51 10.367 c 0 6.02 4.897 10.916 10.916 10.916 h 54.03 c 6.02 0 10.916 -4.896 10.916 -10.916 c 0 -4.899 -3.303 -9.225 -8.032 -10.518 c -0.379 -0.104 -0.662 -0.42 -0.724 -0.809 c -1.063 -6.694 -6.752 -11.553 -13.528 -11.553 c -2.85 0 -5.589 0.876 -7.923 2.534 c -0.242 0.171 -0.548 0.227 -0.832 0.152 c -0.286 -0.075 -0.524 -0.272 -0.651 -0.54 C 48.676 38.516 41.96 34.26 34.682 34.26 z" style="stroke: none; stroke-width: 1; stroke-dasharray: none; stroke-linecap: butt; stroke-linejoin: miter; stroke-miterlimit: 10; fill: rgb(0,0,0); fill-rule: nonzero; opacity: 1;" transform=" matrix(1 0 0 1 0 0) " stroke-linecap="round" />
</g>
</svg>